# xmcd
#
# Track frame offsets:
#	150
#	4240
#	26111
#	47691
#	69455
#	90076
#	110730
#	134101
#	156375
#	175307
#	194417
#	213366
#
# Disc length: 3015 seconds
#
# Revision: 4
# Processed by: cddbd v1.5.2PL0 Copyright (c) Steve Scherf et al.
# Submitted via: EZCDAudioConverter 3.1.4.1
#
DISCID=ab0bc50c
DTITLE=張學友 - 張學友《真情流露》Abbey Road Studios
DYEAR=1992
DGENRE=Pop
TTITLE0=偷閒加油站Ⅰ
TTITLE1=愛得比你深
TTITLE2=分手總要在雨天
TTITLE3=Honey B
TTITLE4=暗戀你
TTITLE5=明日世界終結時
TTITLE6=真情流露
TTITLE7=歲月流情
TTITLE8=紅葉舞秋山
TTITLE9=相思風雨中
TTITLE10=不要再問
TTITLE11=偷閒加油站Ⅱ
EXTD=
EXTT0=
EXTT1=
EXTT2=
EXTT3=
EXTT4=
EXTT5=
EXTT6=
EXTT7=
EXTT8=
EXTT9=
EXTT10=
EXTT11=
PLAYORDER=
